<?xml version="1.0" standalone="no"?><!DOCTYPE svg PUBLIC "-//W3C//DTD SVG 1.1//EN" "http://www.w3.org/Graphics/SVG/1.1/DTD/svg11.dtd" [<!ENTITY nbsp " ">]><svg data-noselect="" viewBox="31.782598080840003 85.10901872086251 583.7272729695401 437.79545472715506" width="583.7272729695401" ref="svg_canvas" height="437.79545472715506" preserveAspectRatio="none" version="1.1" xmlns="http://www.w3.org/2000/svg" style="background: #ffffff;"><g id="shape_riQpQ6yqKM" ref="shape_riQpQ6yqKM" key="shape_riQpQ6yqKM" transform="translate(111.78259808084,216.31544030231) rotate(0,164.02066139536,87.69130578213) scale(1,1)" style="cursor:move;display:inline;opacity:1;" filter="">
            <g style="display:inline"><rect fill="rgba(0,0,0,0)" width="348.04132279071" height="195.38261156426" x="-10" y="-10"></rect><svg version="1.1" id="图层_1" xmlns="http://www.w3.org/2000/svg" xmlns:xlink="http://www.w3.org/1999/xlink" x="0px" y="0px" width="328.04132279071" height="175.38261156426" viewBox="1.0900077819824219 1.0000007152557373 196.89999389648438 148.44000244140625" style="enable-background:new 0 0 200 151;" xml:space="preserve" preserveAspectRatio="none" data-parent="shape_riQpQ6yqKM">
<style type="text/css">
	.st0{fill:#000003;}
</style>
<path class="" d="M197.82,14.17c0,0-0.36-0.51-0.56-0.75c-0.21-0.26-0.42-0.64-0.64-1.17c-0.19-0.46-0.38-1.04-0.59-1.78
	c-0.19-0.66-0.37-1.38-0.57-2.12c-0.21-0.82-0.43-1.67-0.67-2.49c-0.27-0.94-0.54-1.69-0.81-2.31c-0.34-0.78-0.69-1.36-1.09-1.78
	c-0.48-0.51-1.02-0.77-1.6-0.77c0,0,0,0-0.01,0c0,0,0,0-0.01,0h-0.01c0,0,0,0-0.01,0l-22.49,0.05c-0.1,0-0.21,0-0.31,0.01
	c-0.11,0.01-0.22,0.02-0.33,0.04s-0.22,0.04-0.33,0.06c-0.12,0.02-0.23,0.05-0.35,0.08c-1.06,0.29-2.05,0.93-2.96,1.88
	c-0.83,0.88-1.6,2.03-2.34,3.51c-0.63,1.26-1.25,2.77-1.9,4.64c-0.58,1.69-1.13,3.49-1.67,5.25c-0.08,0.27-0.17,0.54-0.25,0.82
	c-1.24-2.38-2.44-4.37-3.63-6.06c-0.23-0.32-0.46-0.64-0.69-0.94c0,0,0,0,0-0.01c-0.02-0.02-0.04-0.05-0.06-0.07
	c-1.6-2.09-3.24-3.7-4.98-4.91c-2.45-1.69-5.16-2.55-8.06-2.56h-0.01L97.98,2.65c-0.35,0-0.71,0.01-1.07,0.02s-0.73,0.03-1.1,0.06
	c-0.38,0.02-0.75,0.06-1.14,0.1c-0.38,0.04-0.77,0.09-1.17,0.14c-5.07,0.7-9.91,2.43-14.39,5.14c-4.39,2.66-8.44,6.22-12.37,10.87
	c-3.48,4.12-6.9,9.16-10.44,15.41c-3.29,5.79-6.28,11.86-9.44,18.27l-0.04,0.07c-3.26,6.61-6.63,13.44-10.53,20.39
	c-4.64,8.24-9.42,15.5-14.63,22.19c-6.8,8.74-11.1,13.47-20.57,22.14l54.5,31.99c7.18-9.83,13.27-18.97,19.44-30.19
	c0.31-0.5,0.57-0.96,0.78-1.35c4.83-8.9,9.26-18.36,13.53-28.93c3.58-8.83,6.63-17.35,9.6-25.64c2.82-7.88,5.48-15.31,8.37-22.37
	c3.07-7.52,6-13.58,8.93-18.52c1.49-2.51,2.99-4.73,4.52-6.72c0.43,0.52,0.86,1.06,1.31,1.62c1.78,2.28,3.44,4.62,5.06,6.92
	c1.22,1.74,2.48,3.53,3.72,5.17c1.36,1.79,2.51,3.16,3.63,4.31c1.28,1.32,2.48,2.32,3.67,3.03c0.65,0.4,1.29,0.7,1.93,0.93
	s1.27,0.37,1.91,0.44c0.01,0,0.01,0,0.01,0l30.24,3.13c0.12,0.01,0.24,0.02,0.36,0.02c0.22,0,0.43-0.02,0.65-0.06
	c0.17-0.03,0.34-0.07,0.51-0.13s0.35-0.12,0.52-0.2c0.34-0.16,0.69-0.37,1.02-0.62c0.34-0.25,0.68-0.56,1.02-0.9
	c1.2-1.23,2.25-2.72,3.19-4.54c0.8-1.54,1.51-3.29,2.19-5.37c0.54-1.66,1.06-3.58,1.61-5.85c0.47-1.96,1.83-8.38,2.1-9.57l3.43,0.1
	l8.96,0.25l0.19,0.01C197.94,14.33,197.88,14.25,197.82,14.17z M194.84,8.5C194.84,8.51,194.84,8.51,194.84,8.5
	c0.19,0.74,0.38,1.46,0.57,2.14c0.11,0.4,0.22,0.74,0.32,1.05l-9.71-0.22c0.28-1.15,0.56-2.18,0.83-3.09L194.84,8.5z M194.18,6.04
	c0.21,0.7,0.4,1.44,0.59,2.19l-7.84-0.12c0.1-0.33,0.2-0.64,0.3-0.93c0.31-0.91,0.61-1.67,0.93-2.35l5.65,0.03
	C193.92,5.22,194.05,5.61,194.18,6.04z M190.59,1.78c0.06-0.02,0.12-0.05,0.19-0.07c0.06-0.02,0.12-0.04,0.18-0.05
	s0.12-0.02,0.17-0.03s0.1-0.01,0.14-0.01c0.02,0,0.05,0.01,0.07,0.01c0.06,0,0.12,0.01,0.17,0.02c0.06,0.01,0.12,0.03,0.19,0.05
	c0.01,0,0.01,0.01,0.02,0.01c0.14,0.06,0.27,0.13,0.41,0.23l-1.81,0.01C190.41,1.88,190.5,1.82,190.59,1.78z M190.08,2.09l2.22-0.01
	c0.04,0.04,0.08,0.07,0.12,0.11c0.34,0.36,0.66,0.88,0.97,1.61c0.12,0.27,0.23,0.57,0.36,0.91l-5.53-0.03
	c0.19-0.4,0.39-0.78,0.59-1.11C189.22,2.9,189.65,2.41,190.08,2.09z M164.94,3.54c0.84-0.89,1.72-1.45,2.68-1.71
	c0.1-0.03,0.2-0.06,0.31-0.07c0.1-0.02,0.2-0.04,0.3-0.06s0.19-0.02,0.28-0.03c0.08-0.01,0.17-0.01,0.25-0.01l2.2,0.01l0,0
	l13.15-0.04l5.53-0.02c-0.12,0.09-0.23,0.19-0.35,0.31l-0.15,0.15c-0.3,0.31-0.59,0.7-0.87,1.16c-0.2,0.33-0.4,0.72-0.6,1.13
	l-14.33-0.09h-0.74l-8.26-0.05C164.54,3.99,164.74,3.75,164.94,3.54z M161.69,9.19c0.04-0.09,0.07-0.19,0.11-0.28
	c0.14-0.35,0.28-0.67,0.42-0.99c0.01-0.02,0.02-0.04,0.03-0.07c0.15-0.33,0.3-0.64,0.45-0.94c0.17-0.33,0.33-0.65,0.51-0.94
	c0.02-0.05,0.05-0.09,0.08-0.14c0.14-0.23,0.27-0.46,0.41-0.67c0.04-0.06,0.08-0.13,0.12-0.19c0.13-0.2,0.27-0.38,0.4-0.56
	l8.47,0.05h0.73l14.16,0.09c-0.02,0.05-0.04,0.09-0.07,0.14l-0.07,0.15c-0.28,0.63-0.56,1.35-0.83,2.15
	c-0.12,0.35-0.23,0.73-0.35,1.12l-0.08,0.28c-0.17,0.56-0.33,1.15-0.5,1.79l-9.58-0.2l-0.7-0.01l-13.92-0.3
	C161.56,9.5,161.62,9.34,161.69,9.19z M148.38,6.51c1.95,1.35,3.59,2.84,5.38,5.38c0.72,1.02,1.55,2.16,2.38,3.44l-34.03-1.26
	c1.4-1.67,2.82-3.15,4.27-4.43c1.16-1.03,2.35-1.91,3.56-2.69c0.59-0.36,1.18-0.69,1.77-0.98l16.09,0.19
	C148,6.27,148.19,6.38,148.38,6.51z M140.24,3.99c2.49,0.01,5.09,0.7,7.32,2l-15.53-0.17c1.51-0.7,3.06-1.17,4.79-1.53
	C137.11,4.23,138.41,3.99,140.24,3.99z M95.06,4.15c3.84-0.59,7.77-0.73,8.13-0.73c0.35-0.01,0.7-0.02,1.05-0.02
	c3.72,0.01,3.16,0,3.16,0l25.64,0.1c-1.33,0.35-3.02,1.06-4.98,2.25c-0.01,0.01-0.02,0.01-0.04,0.02c-0.61,0.38-1.49,0.94-2.12,1.41
	c-1.93,1.41-5.82,5.14-5.84,5.14c-0.08,0.08-0.16,0.16-0.23,0.24l-41.26-1.41C84.39,7.2,91.62,4.68,95.06,4.15z M55.41,136.47
	l-41.59-21.64c9.58-9.95,16.01-20.5,22.5-30.94l42.16,14.37C71.69,112.49,64.12,125.83,55.41,136.47z M80.33,94.26L38.61,80.11
	c0.68-1.19,1.33-2.38,1.99-3.6c5.09-9.34,7.68-14.55,10.67-21.41l41.95,8.67C89.22,73.87,84.96,84.23,80.33,94.26z M94.63,60.22
	l-42-8.27c3.31-7.66,6.64-15.03,10.39-21.8l42.61,4.41C102.15,41.79,98.56,50.36,94.63,60.22z M106.61,32.57l-42.69-4.02
	c2.22-3.86,4.62-7.47,7.49-10.78c1.82-2.11,3.66-4,5.7-5.57l41.73,1.42C114.73,18.16,110.36,25.09,106.61,32.57z M128.43,23.67
	c-1.61-2.27-6.15-8.63-6.64-9.22c0.07-0.07,0.13-0.15,0.19-0.23l34.26,1.27c0.6,0.93,1.15,2.02,1.69,3.09c0,0,2.12,3.89,2.89,5.56
	l0.07,0.16c0.3,0.65,0.61,1.31,0.91,1.96c0.01,0.01,0.01,0.02,0.01,0.04L156,25.91l-0.65-0.04l-20.49-1.36l-6.15-0.41
	C128.63,23.95,128.53,23.8,128.43,23.67z M132.06,29.16c-1.11-1.46-2.15-3.29-3.23-4.91L155.3,26l0.65,0.05l5.95,0.4
	c0.01,0.02,0.02,0.05,0.03,0.07c0.77,1.72,1.6,3.49,2.38,5.13l0.07,0.16c0.04,0.1,0.09,0.2,0.14,0.3c0.65,1.36,1.26,2.53,1.83,3.53
	l-15.67-1.43l-0.81-0.07l-14.92-1.35C134.05,31.78,133.22,30.69,132.06,29.16z M153.36,38.69l-8.27-0.86l-2.95-0.31
	c-0.02,0-0.04,0-0.06,0h-0.01c-0.03-0.01-0.06-0.01-0.1-0.01c-0.14-0.02-0.28-0.05-0.41-0.07c-0.98-0.2-1.89-0.7-2.93-1.33
	c-1.14-0.69-1.98-1.59-3.23-2.87c-0.09-0.1-0.19-0.2-0.28-0.3l14.62,1.33l0.81,0.07l15.91,1.45c0.19,0.32,0.37,0.63,0.56,0.92
	c0.22,0.35,0.44,0.67,0.65,0.98c0,0.01,0.01,0.01,0.01,0.02c0.14,0.2,0.28,0.4,0.42,0.58l0.12,0.17c0.44,0.57,0.88,1.05,1.32,1.44
	c0.22,0.2,0.44,0.37,0.65,0.52L153.36,38.69z M174.95,39.78c-0.31,0.23-0.61,0.41-0.91,0.56c-0.14,0.07-0.29,0.12-0.43,0.17
	c-0.14,0.04-0.28,0.08-0.43,0.1c-0.28,0.06-0.56,0.07-0.84,0.04h-0.01c-0.79-0.09-1.57-0.48-2.38-1.21
	c-0.18-0.17-0.36-0.35-0.56-0.56c-0.03-0.04-0.07-0.07-0.1-0.11c-0.07-0.07-0.13-0.15-0.2-0.23l6.54,0.64
	C175.41,39.41,175.18,39.61,174.95,39.78z M178.98,34.55c-0.91,1.77-1.93,3.2-3.08,4.38c-0.04,0.04-0.07,0.07-0.11,0.11l-1.22-0.12
	l-5.61-0.55c-0.06-0.06-0.1-0.12-0.16-0.18c-0.02-0.02-0.04-0.05-0.06-0.07c-0.4-0.5-0.8-1.07-1.21-1.74
	c-0.73-1.18-1.53-2.66-2.43-4.52l14.58,1.18C179.46,33.57,179.22,34.08,178.98,34.55z M181.12,29.27c-0.43,1.34-0.89,2.53-1.36,3.62
	l-14.73-1.19c-0.81-1.69-1.61-3.48-2.45-5.38l-0.02-0.06c-0.28-0.64-0.57-1.28-0.86-1.93l20.5,1.25
	C181.83,26.94,181.48,28.17,181.12,29.27z M182.71,23.48c-0.17,0.69-0.33,1.33-0.49,1.95l-20.62-1.25
	c-0.82-1.82-1.66-3.66-2.57-5.48c-0.1-0.2-0.2-0.39-0.3-0.58c0.15-0.48,0.3-0.95,0.44-1.42l24.81,0.99
	C183.61,19.49,183.17,21.52,182.71,23.48z M185.38,11.45l-0.04,0.15c-0.03,0.11-0.06,0.21-0.08,0.32c-0.03,0.12-0.06,0.27-0.08,0.41
	c-0.08,0.35-0.17,0.7-0.25,1.06l-0.15,0.63c-0.25,1.15-0.51,2.33-0.76,3.5l-24.79-0.99c0.51-1.69,1.04-3.43,1.61-5.07
	c0.14-0.42,0.29-0.82,0.43-1.2c0.03-0.08,0.06-0.16,0.09-0.24c0.03-0.07,0.06-0.14,0.09-0.21l14.05,0.3l0.71,0.01l9.45,0.2
	C185.56,10.69,185.47,11.06,185.38,11.45z M185.63,13.42c0.07-0.28,0.11-0.64,0.16-0.97c0.03-0.12,0.06-0.25,0.09-0.38
	c0.04-0.15,0.07-0.3,0.11-0.45l9.81,0.23c0.08,0.23,0.16,0.44,0.23,0.64c0.18,0.43,0.39,0.96,0.57,1.23L185.63,13.42z" fill="#000003"></path>
</svg></g>
        </g><g id="shape_di7C4ebMzI" ref="shape_di7C4ebMzI" key="shape_di7C4ebMzI" transform="translate(196.32987105038,-5.569167419050018) rotate(0,294.51794496385,310.0294604) scale(1,1)" style="cursor:move;display:inline;opacity:1;" filter="">
            <g style="display:inline"><svg xmlns="http://www.w3.org/2000/svg" version="1.1" xmlns:xlink="http://www.w3.org/1999/xlink" width="603.72" height="618.57324" viewBox="0 0 603.72 618.57324" preserveAspectRatio="none" data-parent="shape_di7C4ebMzI"><rect fill="rgba(0,0,0,0)" width="251" height="88" x="88.18" y="265.28662"></rect><g data-width="250.43120000000002" transform="translate(88.18, 0)"><path d="M76.10-0.09L69.40-0.09Q66.14-0.09 63.84-2.38Q61.55-4.67 61.55-7.94L61.55-7.94L61.55-54.76L18.34-54.76L18.34-9.70L14.02-0.18L1.94-0.18L6.17-9.70L6.17-63.40L61.55-63.40L68.43-63.40L73.37-63.40L73.37-10.23Q73.37-9.44 73.98-8.86Q74.60-8.29 75.39-8.29L75.39-8.29L79.19-8.29L76.10-0.09ZM48.23-52.47L59.35-52.47Q57.85-46.38 54.76-40.43Q51.67-34.48 47.44-29.19L47.44-29.19Q52.29-25.22 59.35-22.57L59.35-22.57L59.35-11.55Q54.05-12.52 49.12-15.03Q44.18-17.55 39.68-21.25L39.68-21.25Q35.18-17.55 30.25-15.03Q25.31-12.52 20.02-11.55L20.02-11.55L20.02-22.57Q26.98-25.22 31.92-29.19L31.92-29.19Q27.69-34.48 24.60-40.43Q21.52-46.38 20.02-52.47L20.02-52.47L31.13-52.47Q33.07-48.50 35.10-44.71Q37.12-40.92 39.68-37.48L39.68-37.48Q42.24-40.92 44.27-44.71Q46.29-48.50 48.23-52.47L48.23-52.47Z" transform="translate(0 340.28662) " fill="rgb(0, 0, 0)" stroke="rgb(0, 0, 0)" stroke-width="0.147" data-glyph-w="81.1256" data-glyph-h="88.18" data-glyph-ascender="75.74662000000001" data-glyph-descender="-12.433380000000001"></path><path d="M1.85-32.27L8.29-32.27L8.29-41.09L1.85-41.09L1.85-48.50L31.92-48.50L31.92-41.09L19.84-41.09L19.84-32.27L31.92-32.27L31.92-24.87L19.84-24.87L19.84-9.79Q19.84-8.64 20.63-7.85Q21.43-7.05 22.57-7.05L22.57-7.05L31.48-7.05L26.63-0.26L16.58-0.26Q14.81-0.26 13.32-0.93Q11.82-1.59 10.71-2.69Q9.61-3.79 8.95-5.29Q8.29-6.79 8.29-8.55L8.29-8.55L8.29-24.87L1.85-24.87L1.85-32.27ZM14.55-52.47L1.85-52.47L7.05-63.23L16.05-63.23L14.46-59.61L31.92-59.61L31.92-52.47L19.66-52.47L14.55-52.47ZM59.87-48.94L64.20-35.80L54.05-35.80L49.73-48.94L59.87-48.94ZM39.33-62.26L73.45-62.26L79.19-35.71L68.34-35.71L64.37-54.67L48.41-54.67L44.44-35.71L33.60-35.71L39.33-62.26ZM33.86-24.25L33.86-31.83L79.01-31.83L79.01-24.25L71.87-4.32L52.64-4.32L53.70-0.26L42.68-0.26L36.33-18.61L47.35-18.61L49.73-11.90L62.70-11.90L66.93-24.25L33.86-24.25Z" transform="translate(81.1256 340.28662) " fill="rgb(0, 0, 0)" stroke="rgb(0, 0, 0)" stroke-width="0.147" data-glyph-w="81.1256" data-glyph-h="88.18" data-glyph-ascender="75.74662000000001" data-glyph-descender="-12.433380000000001"></path><path d="M62.17-8.64L69.40-8.64Q70.10-8.64 70.72-9.08L70.72-9.08Q71.25-9.79 71.25-10.41L71.25-10.41L71.25-22.93L8.20-22.93L8.20-59.70L15.70-59.70L18.08-63.67L29.10-63.67L26.72-59.70L77.95-59.70L77.95-40.47Q77.95-37.48 76.01-35.71L76.01-35.71Q74.16-33.77 71.34-33.77L71.34-33.77L58.64-33.77L62.70-42.41L65.17-42.41Q65.78-42.41 66.40-43.03L66.40-43.03Q66.93-43.38 66.93-44.27L66.93-44.27L66.93-50.88L19.22-50.88L19.22-31.66L82.18-31.66L82.18-6.53Q82.18-3.62 80.24-1.76L80.24-1.76Q78.39 0.09 75.75 0.09L75.75 0.09L58.20 0.09L62.17-8.64ZM60.40-17.99L60.40-9.17L6.00-9.17L6.00-17.99L60.40-17.99ZM39.68-34.04L28.39-45.94L41.00-45.94L52.38-34.04L39.68-34.04Z" transform="translate(162.2512 340.28662) " fill="rgb(0, 0, 0)" stroke="rgb(0, 0, 0)" stroke-width="0.147" data-glyph-w="88.18" data-glyph-h="88.18" data-glyph-ascender="75.74662000000001" data-glyph-descender="-12.433380000000001"></path></g></svg></g>
        </g><g id="shape_mPqbwimorD" ref="shape_mPqbwimorD" key="shape_mPqbwimorD" transform="translate(403.35959816534,182.81957417516998) rotate(0,168.01606561377,70.624829101562) scale(1,1)" style="cursor:move;display:inline;opacity:1;" filter="">
            <g style="display:inline"><svg xmlns="http://www.w3.org/2000/svg" version="1.1" xmlns:xlink="http://www.w3.org/1999/xlink" width="174.48000000000002" height="136.2326953125" viewBox="0 0 174.48000000000002 136.2326953125" preserveAspectRatio="none" data-parent="shape_mPqbwimorD"><rect fill="rgba(0,0,0,0)" width="99" height="18" x="18.87" y="59.11634765625"></rect><g data-width="98.75518675781251" transform="translate(18.87, 0)"><path d="M1.40 0L1.40 0L1.40-13.54L1.40-13.54L2.31-13.54L2.31-13.54L7.35-13.54Q9.08-13.54 10.14-12.66Q11.20-11.77 11.20-10.31L11.20-10.31Q11.20-8.62 9.95-7.68L9.95-7.68Q9.67-7.45 9.33-7.30L9.33-7.30L9.33-7.30Q10.01-7.06 10.50-6.70L10.50-6.70Q11.83-5.73 11.83-4.02L11.83-4.02Q11.83-2.13 10.54-1.06Q9.24 0 6.94 0L6.94 0L2.31 0L2.31 0L1.40 0ZM3.23-11.98L3.23-11.98L3.23-7.78L3.23-7.78L6.50-7.78Q8.00-7.78 8.69-8.32Q9.38-8.85 9.38-10.02L9.38-10.02Q9.38-11.03 8.74-11.50Q8.11-11.98 6.74-11.98L6.74-11.98L3.23-11.98ZM3.23-6.29L3.23-6.29L3.23-1.57L3.23-1.57L6.97-1.57Q8.54-1.57 9.27-2.17Q10.01-2.78 10.01-4.09L10.01-4.09Q10.01-5.23 9.24-5.76Q8.48-6.29 6.84-6.29L6.84-6.29L3.23-6.29Z" transform="translate(0 74.11634765625) " fill="rgb(0, 0, 0)" stroke="rgb(0, 0, 0)" stroke-width="0.031" data-glyph-w="12.586142578125001" data-glyph-h="21.6249462890625" data-glyph-ascender="17.50634765625" data-glyph-descender="-4.118598632812501"></path><path d="M11.63 0L1.62 0L1.62 0L1.62-13.54L1.62-13.54L11.53-13.54L11.53-13.54L11.53-12.73L11.53-11.92L11.53-11.92L3.46-11.92L3.46-11.92L3.46-7.79L3.46-7.79L10.83-7.79L10.83-6.97L10.83-6.16L10.83-6.16L3.46-6.16L3.46-6.16L3.46-1.62L3.46-1.62L11.63-1.62L11.63-1.62L11.63-0.81L11.63 0L11.63 0Z" transform="translate(12.586142578125001 74.11634765625) " fill="rgb(0, 0, 0)" stroke="rgb(0, 0, 0)" stroke-width="0.031" data-glyph-w="12.586142578125001" data-glyph-h="21.6249462890625" data-glyph-ascender="17.50634765625" data-glyph-descender="-4.118598632812501"></path><path d="M10.14 0L1.44 0L1.44 0L1.44-13.54L1.44-13.54L2.35-13.54L3.27-13.54L3.27-13.54L3.27-1.62L3.27-1.62L10.14-1.62L10.14-1.62L10.14-0.81L10.14 0L10.14 0Z" transform="translate(25.172285156250002 74.11634765625) " fill="rgb(0, 0, 0)" stroke="rgb(0, 0, 0)" stroke-width="0.031" data-glyph-w="10.4945947265625" data-glyph-h="21.6249462890625" data-glyph-ascender="17.50634765625" data-glyph-descender="-4.118598632812501"></path><path d="M10.14 0L1.44 0L1.44 0L1.44-13.54L1.44-13.54L2.35-13.54L3.27-13.54L3.27-13.54L3.27-1.62L3.27-1.62L10.14-1.62L10.14-1.62L10.14-0.81L10.14 0L10.14 0Z" transform="translate(35.6668798828125 74.11634765625) " fill="rgb(0, 0, 0)" stroke="rgb(0, 0, 0)" stroke-width="0.031" data-glyph-w="10.4945947265625" data-glyph-h="21.6249462890625" data-glyph-ascender="17.50634765625" data-glyph-descender="-4.118598632812501"></path><path d="M1.40 0L1.40 0L1.40-13.54L1.40-13.54L2.31-13.54L2.31-13.54L7.35-13.54Q9.08-13.54 10.14-12.66Q11.20-11.77 11.20-10.31L11.20-10.31Q11.20-8.62 9.95-7.68L9.95-7.68Q9.67-7.45 9.33-7.30L9.33-7.30L9.33-7.30Q10.01-7.06 10.50-6.70L10.50-6.70Q11.83-5.73 11.83-4.02L11.83-4.02Q11.83-2.13 10.54-1.06Q9.24 0 6.94 0L6.94 0L2.31 0L2.31 0L1.40 0ZM3.23-11.98L3.23-11.98L3.23-7.78L3.23-7.78L6.50-7.78Q8.00-7.78 8.69-8.32Q9.38-8.85 9.38-10.02L9.38-10.02Q9.38-11.03 8.74-11.50Q8.11-11.98 6.74-11.98L6.74-11.98L3.23-11.98ZM3.23-6.29L3.23-6.29L3.23-1.57L3.23-1.57L6.97-1.57Q8.54-1.57 9.27-2.17Q10.01-2.78 10.01-4.09L10.01-4.09Q10.01-5.23 9.24-5.76Q8.48-6.29 6.84-6.29L6.84-6.29L3.23-6.29Z" transform="translate(46.161474609375006 74.11634765625) " fill="rgb(0, 0, 0)" stroke="rgb(0, 0, 0)" stroke-width="0.031" data-glyph-w="12.586142578125001" data-glyph-h="21.6249462890625" data-glyph-ascender="17.50634765625" data-glyph-descender="-4.118598632812501"></path><path d="M1.71 0L1.71 0L1.71-13.54L1.71-13.54L2.63-13.54L3.55-13.54L3.55-13.54L3.55 0L3.55 0L2.64 0L1.71 0Z" transform="translate(58.747617187500005 74.11634765625) " fill="rgb(0, 0, 0)" stroke="rgb(0, 0, 0)" stroke-width="0.031" data-glyph-w="5.2426904296875" data-glyph-h="21.6249462890625" data-glyph-ascender="17.50634765625" data-glyph-descender="-4.118598632812501"></path><path d="M1.66 0L1.66 0L1.66-13.54L1.66-13.54L2.57-13.54L2.57-13.54L7.96-13.54Q10.12-13.54 11.24-12.61Q12.37-11.67 12.37-9.87L12.37-9.87Q12.37-8.09 11.19-7.09L11.19-7.09Q10.90-6.84 10.56-6.64L10.56-6.64L10.56-6.64L10.86-6.50Q12.10-5.79 12.14-4.11L12.14-4.11L12.22-1.64Q12.24-1.03 12.37-0.76Q12.51-0.50 12.91-0.30L12.91-0.30L12.91-0.01L10.65-0.01Q10.58-0.18 10.50-0.88Q10.43-1.58 10.39-2.43L10.39-2.43L10.36-3.50Q10.32-4.76 9.74-5.30Q9.16-5.84 7.84-5.84L7.84-5.84L3.49-5.84L3.49-5.84L3.49 0L3.49 0L2.58 0L1.66 0ZM3.49-12.01L3.49-7.43L3.49-7.43L8.03-7.43Q9.30-7.43 9.89-7.98Q10.48-8.54 10.48-9.75L10.48-9.75Q10.48-10.92 9.85-11.46Q9.23-12.01 7.89-12.01L7.89-12.01L3.49-12.01L3.49-12.01Z" transform="translate(63.990307617187504 74.11634765625) " fill="rgb(0, 0, 0)" stroke="rgb(0, 0, 0)" stroke-width="0.031" data-glyph-w="13.627309570312502" data-glyph-h="21.6249462890625" data-glyph-ascender="17.50634765625" data-glyph-descender="-4.118598632812501"></path><path d="M1.53 0L1.53 0L1.53-13.54L1.53-13.54L2.44-13.54L2.44-13.54L7.09-13.54Q9.67-13.54 11.20-11.71Q12.72-9.87 12.72-6.76L12.72-6.76Q12.72-3.67 11.16-1.83Q9.60 0 6.95 0L6.95 0L2.44 0L2.44 0L1.53 0ZM3.36-11.98L3.36-1.57L3.36-1.57L6.72-1.57Q8.69-1.57 9.76-2.92Q10.84-4.28 10.84-6.76L10.84-6.76Q10.84-9.26 9.80-10.62Q8.77-11.98 6.87-11.98L6.87-11.98L3.36-11.98L3.36-11.98Z" transform="translate(77.6176171875 74.11634765625) " fill="rgb(0, 0, 0)" stroke="rgb(0, 0, 0)" stroke-width="0.031" data-glyph-w="13.627309570312502" data-glyph-h="21.6249462890625" data-glyph-ascender="17.50634765625" data-glyph-descender="-4.118598632812501"></path><path d="" transform="translate(91.24492675781251 74.11634765625) " fill="rgb(0, 0, 0)" stroke="rgb(0, 0, 0)" stroke-width="0.031" data-glyph-w="7.510260000000001" data-glyph-h="18.87" data-glyph-ascender="16.605600000000003" data-glyph-descender="-2.2644"></path></g></svg></g>
        </g></svg>